<svg id="aeddb964-ca54-4695-bc4f-12e6d5f5db8b" data-name="Layer 1" xmlns="http://www.w3.org/2000/svg" viewBox="0 0 654.06 74.82"><defs><style>.af8949d8-2ddc-42ad-82d3-fb40bf7a3efc{fill:#528ca8;}.eff09e95-db91-422a-95da-97e37bea405d{fill:#7ac8dd;}</style></defs><title>Mobrand Lettering</title><path class="af8949d8-2ddc-42ad-82d3-fb40bf7a3efc" d="M93.54,22.91h13.24l21.53,33.45,21.52-33.45h13.24V93.65H150.64V42.92L128.31,76.27h-.41L105.77,43.12V93.65H93.54Z" transform="translate(-93.54 -20.37)"/><path class="af8949d8-2ddc-42ad-82d3-fb40bf7a3efc" d="M304.09,22.91h31.73c8.08,0,14.45,2.22,18.49,6.27a15.84,15.84,0,0,1,4.75,11.72v.2c0,8.49-4.85,13-10.1,15.76,8.28,2.83,14,7.58,14,17.18v.2c0,12.64-10.41,19.41-26.17,19.41H304.09V22.91Zm42.54,20c0-5.56-4.44-9-12.43-9H316.32V52.72h17c8,0,13.34-3.13,13.34-9.6v-.2ZM336,63.23h-19.7v19.4h20.61c8.49,0,13.64-3.33,13.64-9.7v-.2C350.57,66.77,345.82,63.23,336,63.23Z" transform="translate(-93.54 -20.37)"/><path class="af8949d8-2ddc-42ad-82d3-fb40bf7a3efc" d="M395.52,22.91H427c8.9,0,15.87,2.63,20.42,7.08a21.36,21.36,0,0,1,5.86,15.25v.21c0,11.62-7,18.59-16.78,21.42l19.1,26.78H440.89L423.51,69H407.94V93.65H395.52V22.91ZM426.13,58c8.9,0,14.56-4.65,14.56-11.83V46c0-7.58-5.46-11.72-14.66-11.72H408V58Z" transform="translate(-93.54 -20.37)"/><path class="af8949d8-2ddc-42ad-82d3-fb40bf7a3efc" d="M512.1,22.41h11.52l31.13,71.24H541.61l-7.17-17.08H501l-7.28,17.08H481Zm17.79,43.14L517.66,37.26,505.54,65.55Z" transform="translate(-93.54 -20.37)"/><path class="af8949d8-2ddc-42ad-82d3-fb40bf7a3efc" d="M585.34,22.91h11.52l37.9,48.91V22.91H647V93.65h-10.4l-39-50.33V93.65H585.34Z" transform="translate(-93.54 -20.37)"/><path class="af8949d8-2ddc-42ad-82d3-fb40bf7a3efc" d="M683.64,22.91H710c22.23,0,37.59,15.26,37.59,35.17v.2c0,19.91-15.36,35.37-37.59,35.37H683.64Zm12.43,11.32v48.1H710c14.85,0,24.55-10,24.55-23.85v-.2c0-13.84-9.7-24.05-24.55-24.05Z" transform="translate(-93.54 -20.37)"/><path class="eff09e95-db91-422a-95da-97e37bea405d" d="M212.77,42.83a24.46,24.46,0,0,1,36.28-2.7c4.61,4.08,12.54,12.81,18.83,28.68a37.43,37.43,0,0,0-34.13-48.4c-.83,0-1.66-.05-2.48,0C226,25.09,218.06,33.17,212.77,42.83Z" transform="translate(-93.54 -20.37)"/><path class="eff09e95-db91-422a-95da-97e37bea405d" d="M228.73,82a24.46,24.46,0,0,1-21-25.28,25.23,25.23,0,0,1,.88-5.54C210,44.9,213.83,34,224,21.25a37.42,37.42,0,0,0-23.88,56C206.87,79.41,217.79,82.25,228.73,82Z" transform="translate(-93.54 -20.37)"/><path class="eff09e95-db91-422a-95da-97e37bea405d" d="M237.46,81.65c-6.27,1.84-17.34,3.73-32.94,1.38a37.42,37.42,0,0,0,60.57-7.54c-1.53-7.12-4.67-18.24-10.61-27.64a24.47,24.47,0,0,1-17,33.8Z" transform="translate(-93.54 -20.37)"/></svg>